<svg width="33" height="32" viewBox="0 0 33 32" fill="none" xmlns="http://www.w3.org/2000/svg">
<path d="M29.9113 27.0875C27.1075 25.7113 25.5 22.765 25.5 19V16.8363C25.5011 16.4355 25.3813 16.0438 25.1563 15.7122C24.9313 15.3806 24.6115 15.1246 24.2388 14.9775L20.6575 13.545C20.4122 13.4468 20.2157 13.2554 20.111 13.0128C20.0063 12.7701 20.0019 12.4959 20.0988 12.25L22.8888 5.16626C23.5 3.59876 22.75 1.77626 21.1675 1.18876C20.4309 0.914809 19.6162 0.940875 18.8985 1.26135C18.1809 1.58183 17.6177 2.17112 17.33 2.90251L14.5313 10.01C14.483 10.1326 14.411 10.2444 14.3195 10.3391C14.2279 10.4338 14.1185 10.5094 13.9975 10.5617C13.8766 10.6139 13.7466 10.6418 13.6149 10.6437C13.4832 10.6455 13.3524 10.6213 13.23 10.5725L9.63878 9.13501C9.27221 8.98662 8.86972 8.95089 8.48274 9.03238C8.09577 9.11388 7.74187 9.30889 7.46628 9.59251C4.83503 12.3 3.50003 15.4638 3.50003 19C3.49315 22.6129 4.88913 26.0874 7.39378 28.6913C7.4884 28.7896 7.60201 28.8676 7.72771 28.9207C7.85341 28.9738 7.98858 29.0007 8.12503 29H29.5C29.755 29.0005 30.0005 28.9036 30.1863 28.7291C30.3722 28.5546 30.4844 28.3157 30.5 28.0613C30.5089 27.859 30.4577 27.6586 30.353 27.4853C30.2482 27.312 30.0945 27.1736 29.9113 27.0875ZM14.8888 27C13.4094 25.5806 12.3586 23.774 11.8563 21.7863C11.7957 21.5359 11.6431 21.3174 11.4289 21.1743C11.2147 21.0312 10.9545 20.9739 10.7 21.0138C10.5645 21.0382 10.4354 21.0904 10.321 21.1671C10.2066 21.2438 10.1092 21.3433 10.0351 21.4594C9.9609 21.5754 9.9115 21.7056 9.88999 21.8416C9.86847 21.9777 9.87529 22.1167 9.91003 22.25C10.3467 23.972 11.1274 25.5877 12.205 27H8.55503C6.58358 24.8022 5.49534 21.9525 5.50003 19C5.48769 17.4352 5.81747 15.8866 6.46628 14.4625L23.6913 21.3538C24.0663 23.6113 25.01 25.5413 26.4275 27.0025L14.8888 27Z" fill="#F1F7F7"/>
</svg>
