<svg width="33" height="32" viewBox="0 0 33 32" fill="none" xmlns="http://www.w3.org/2000/svg">
<path d="M25.1665 10C25.4317 10 25.6861 9.89464 25.8736 9.70711C26.0611 9.51957 26.1665 9.26522 26.1665 9C26.1645 7.14409 25.4264 5.36477 24.1141 4.05245C22.8017 2.74012 21.0224 2.00199 19.1665 2H10.1665C9.63607 2 9.12736 2.21071 8.75229 2.58579C8.37722 2.96086 8.1665 3.46957 8.1665 4V10C8.1665 10.7956 7.85043 11.5587 7.28782 12.1213C6.72521 12.6839 5.96215 13 5.1665 13C4.90129 13 4.64693 13.1054 4.4594 13.2929C4.27186 13.4804 4.1665 13.7348 4.1665 14C4.1665 14.2652 4.27186 14.5196 4.4594 14.7071C4.64693 14.8946 4.90129 15 5.1665 15C6.49259 15 7.76436 14.4732 8.70204 13.5355C9.63972 12.5979 10.1665 11.3261 10.1665 10H14.1665V13.0775C14.1678 13.5275 14.0672 13.972 13.8724 14.3777C13.6776 14.7833 13.3935 15.1397 13.0415 15.42L11.0415 17.0187C10.4549 17.486 9.98152 18.0798 9.65682 18.7558C9.33213 19.4319 9.16451 20.1726 9.1665 20.9225V28C9.1665 28.5304 9.37722 29.0391 9.75229 29.4142C10.1274 29.7893 10.6361 30 11.1665 30H24.1665C24.6969 30 25.2056 29.7893 25.5807 29.4142C25.9558 29.0391 26.1665 28.5304 26.1665 28V26.4338C26.1682 20.6838 24.7055 15.0282 21.9165 10H25.1665ZM10.1665 4H19.1665C20.3187 4.00164 21.435 4.40035 22.3276 5.12894C23.2201 5.85754 23.8342 6.8715 24.0665 8H10.1665V4Z" fill="#F1F7F7"/>
</svg>
