<svg width="33" height="32" viewBox="0 0 33 32" fill="none" xmlns="http://www.w3.org/2000/svg">
<path d="M15.8333 13H3.83325C3.69616 13.0003 3.56048 12.9724 3.43462 12.9181C3.30877 12.8637 3.19543 12.7841 3.10165 12.6841C3.00787 12.5841 2.93565 12.4659 2.88948 12.3368C2.84331 12.2077 2.82417 12.0705 2.83325 11.9337C2.85537 11.6762 2.97436 11.4366 3.16621 11.2633C3.35806 11.09 3.6085 10.9959 3.867 11H14.8333C14.9703 11.0003 15.106 10.9724 15.2319 10.9181C15.3577 10.8637 15.4711 10.7841 15.5649 10.6841C15.6586 10.5841 15.7309 10.4659 15.777 10.3368C15.8232 10.2077 15.8423 10.0705 15.8333 9.93375C15.8111 9.67616 15.6921 9.43655 15.5003 9.26326C15.3084 9.08997 15.058 8.99588 14.7995 9H12.3695C12.2973 9.00076 12.2257 8.98586 12.1598 8.95633C12.0939 8.9268 12.0351 8.88334 11.9876 8.82893C11.9401 8.77452 11.9049 8.71046 11.8845 8.64116C11.8642 8.57186 11.859 8.49897 11.8695 8.4275C11.9792 7.66892 12.3045 6.95783 12.8068 6.37886C13.3091 5.79988 13.9671 5.3774 14.7026 5.16168C15.4381 4.94597 16.22 4.94611 16.9554 5.16208C17.6909 5.37806 18.3487 5.80078 18.8508 6.37993C19.3528 6.95909 19.6779 7.67029 19.7873 8.42891C19.8968 9.18752 19.7859 9.96161 19.468 10.659C19.1501 11.3565 18.6386 11.9479 17.9942 12.3629C17.3498 12.7779 16.5997 12.9991 15.8333 13ZM30.8232 12.7137C30.7529 11.7296 30.3212 10.8063 29.6114 10.1211C28.9015 9.43588 27.9634 9.03723 26.9774 9.00172C25.9914 8.96622 25.0271 9.29636 24.2698 9.92871C23.5124 10.5611 23.0155 11.451 22.8745 12.4275C22.864 12.499 22.8692 12.5719 22.8895 12.6412C22.9099 12.7105 22.9451 12.7745 22.9926 12.8289C23.0401 12.8833 23.0989 12.9268 23.1648 12.9563C23.2307 12.9859 23.3023 13.0008 23.3745 13H25.8045C26.0626 12.9965 26.3124 13.0909 26.5037 13.2641C26.695 13.4374 26.8137 13.6766 26.8358 13.9337C26.8448 14.0705 26.8257 14.2077 26.7795 14.3368C26.7334 14.4659 26.6611 14.5841 26.5674 14.6841C26.4736 14.7841 26.3602 14.8637 26.2344 14.9181C26.1085 14.9724 25.9728 15.0003 25.8358 15H4.867C4.6085 14.9959 4.35806 15.09 4.16621 15.2633C3.97436 15.4366 3.85537 15.6762 3.83325 15.9337C3.82417 16.0705 3.84331 16.2077 3.88948 16.3368C3.93565 16.4659 4.00787 16.5841 4.10165 16.6841C4.19543 16.7841 4.30877 16.8637 4.43462 16.9181C4.56048 16.9724 4.69616 17.0003 4.83325 17H26.8333C27.3827 17 27.9262 16.8869 28.43 16.6676C28.9338 16.4483 29.3869 16.1276 29.7613 15.7254C30.1357 15.3233 30.4232 14.8483 30.6059 14.3302C30.7886 13.812 30.8626 13.2618 30.8232 12.7137ZM19.8333 19H5.867C5.6085 18.9959 5.35806 19.09 5.16621 19.2633C4.97436 19.4366 4.85537 19.6762 4.83325 19.9337C4.82417 20.0705 4.84331 20.2077 4.88948 20.3368C4.93565 20.4659 5.00787 20.5841 5.10165 20.6841C5.19543 20.7841 5.30877 20.8637 5.43462 20.9181C5.56048 20.9724 5.69616 21.0003 5.83325 21H18.7995C19.0576 20.9965 19.3074 21.0909 19.4987 21.2641C19.69 21.4374 19.8087 21.6766 19.8307 21.9337C19.8398 22.0705 19.8207 22.2077 19.7745 22.3368C19.7283 22.4659 19.6561 22.5841 19.5624 22.6841C19.4686 22.7841 19.3552 22.8637 19.2294 22.9181C19.1035 22.9724 18.9678 23.0003 18.8308 23H16.3695C16.2973 22.9992 16.2257 23.0141 16.1598 23.0437C16.0939 23.0732 16.0351 23.1167 15.9876 23.1711C15.9401 23.2255 15.9049 23.2895 15.8845 23.3588C15.8642 23.4281 15.859 23.501 15.8695 23.5725C15.9792 24.3311 16.3045 25.0422 16.8068 25.6211C17.3091 26.2001 17.9671 26.6226 18.7026 26.8383C19.4381 27.054 20.22 27.0539 20.9554 26.8379C21.6908 26.6219 22.3487 26.1992 22.8508 25.6201C23.3528 25.0409 23.6779 24.3297 23.7873 23.5711C23.8968 22.8125 23.7859 22.0384 23.468 21.341C23.1501 20.6435 22.6386 20.0521 21.9942 19.6371C21.3498 19.2221 20.5997 19.0009 19.8333 19Z" fill="#F1F7F7"/>
</svg>
